<?xml version="1.0"?>
<!DOCTYPE svg PUBLIC "-//W3C//DTD SVG 1.1//EN" "http://www.w3.org/Graphics/SVG/1.1/DTD/svg11.dtd">
<svg width="44.98128004448315mm" height="44.98128004448315mm" viewBox="0 0 44.98128004448315 44.98128004448315" xmlns="http://www.w3.org/2000/svg" version="1.1">
<g id="Sprocket" transform="translate(22.490640,22.490640) scale(1,-1)">
<path id="Sprocket_w0000"  d="M -3.4923210122189716 22.049647080628993 A 2.69793 2.69793 0 0 0 -2.07599 20.6188L -1.917172887869048 20.240982059809586 A 4.33635 4.33635 0 0 1 -1.33674 19.2517A 1.69635 1.69635 0 0 1 1.69478e-17 18.5997A 1.69635 1.69635 0 0 1 1.33674 19.2517A 4.33635 4.33635 0 0 1 1.91717 20.241L 2.075994268581177 20.618803194446755 A 2.69793 2.69793 0 0 0 3.49232 22.0496A 2.69793 2.69793 0 0 0 4.39717 20.2512L 4.431467671447335 19.842756887701636 A 4.33635 4.33635 0 0 1 4.67777 18.7225A 1.69635 1.69635 0 0 1 5.74762 17.6894A 1.69635 1.69635 0 0 1 7.22041 17.8963L 8.078147207191844 18.657878880688774 A 4.33635 4.33635 0 0 0 8.34595 18.9681A 2.69793 2.69793 0 0 0 10.1351 19.8913A 2.69793 2.69793 0 0 0 10.4399 17.9012L 10.346325299231646 17.50218441880878 A 4.33635 4.33635 0 0 1 10.2344 16.3606A 1.69635 1.69635 0 0 1 10.9326 15.0475A 1.69635 1.69635 0 0 1 12.3973 14.7892L 13.448376194113555 15.248412519639984 A 4.33635 4.33635 0 0 0 13.7989 15.4607A 2.69793 2.69793 0 0 0 15.7858 15.7858A 2.69793 2.69793 0 0 0 15.4607 13.7989L 15.248412519639984 13.448376194113555 A 4.33635 4.33635 0 0 1 14.7892 12.3973A 1.69635 1.69635 0 0 1 15.0475 10.9326A 1.69635 1.69635 0 0 1 16.3606 10.2344L 17.50218441880878 10.346325299231646 A 4.33635 4.33635 0 0 0 17.9012 10.4399A 2.69793 2.69793 0 0 0 19.8913 10.1351A 2.69793 2.69793 0 0 0 18.9681 8.34595L 18.657878880688774 8.078147207191847 A 4.33635 4.33635 0 0 1 17.8963 7.22041A 1.69635 1.69635 0 0 1 17.6894 5.74762A 1.69635 1.69635 0 0 1 18.7225 4.67777L 19.842756887701636 4.431467671447336 A 4.33635 4.33635 0 0 0 20.2512 4.39717A 2.69793 2.69793 0 0 0 22.0496 3.49232A 2.69793 2.69793 0 0 0 20.6188 2.07599L 20.240982059809586 1.917172887869049 A 4.33635 4.33635 0 0 1 19.2517 1.33674A 1.69635 1.69635 0 0 1 18.5997 1.27695e-15A 1.69635 1.69635 0 0 1 19.2517 -1.33674L 20.240982059809586 -1.917172887869046 A 4.33635 4.33635 0 0 0 20.6188 -2.07599A 2.69793 2.69793 0 0 0 22.0496 -3.49232A 2.69793 2.69793 0 0 0 20.2512 -4.39717L 19.84275688770164 -4.431467671447334 A 4.33635 4.33635 0 0 1 18.7225 -4.67777A 1.69635 1.69635 0 0 1 17.6894 -5.74762A 1.69635 1.69635 0 0 1 17.8963 -7.22041L 18.657878880688777 -8.078147207191845 A 4.33635 4.33635 0 0 0 18.9681 -8.34595A 2.69793 2.69793 0 0 0 19.8913 -10.1351A 2.69793 2.69793 0 0 0 17.9012 -10.4399L 17.50218441880878 -10.346325299231642 A 4.33635 4.33635 0 0 1 16.3606 -10.2344A 1.69635 1.69635 0 0 1 15.0475 -10.9326A 1.69635 1.69635 0 0 1 14.7892 -12.3973L 15.248412519639986 -13.448376194113552 A 4.33635 4.33635 0 0 0 15.4607 -13.7989A 2.69793 2.69793 0 0 0 15.7858 -15.7858A 2.69793 2.69793 0 0 0 13.7989 -15.4607L 13.448376194113557 -15.248412519639984 A 4.33635 4.33635 0 0 1 12.3973 -14.7892A 1.69635 1.69635 0 0 1 10.9326 -15.0475A 1.69635 1.69635 0 0 1 10.2344 -16.3606L 10.346325299231648 -17.50218441880878 A 4.33635 4.33635 0 0 0 10.4399 -17.9012A 2.69793 2.69793 0 0 0 10.1351 -19.8913A 2.69793 2.69793 0 0 0 8.34595 -18.9681L 8.078147207191847 -18.657878880688774 A 4.33635 4.33635 0 0 1 7.22041 -17.8963A 1.69635 1.69635 0 0 1 5.74762 -17.6894A 1.69635 1.69635 0 0 1 4.67777 -18.7225L 4.431467671447336 -19.842756887701636 A 4.33635 4.33635 0 0 0 4.39717 -20.2512A 2.69793 2.69793 0 0 0 3.49232 -22.0496A 2.69793 2.69793 0 0 0 2.07599 -20.6188L 1.9171728878690502 -20.240982059809586 A 4.33635 4.33635 0 0 1 1.33674 -19.2517A 1.69635 1.69635 0 0 1 2.42073e-15 -18.5997A 1.69635 1.69635 0 0 1 -1.33674 -19.2517L -1.9171728878690453 -20.240982059809586 A 4.33635 4.33635 0 0 0 -2.07599 -20.6188A 2.69793 2.69793 0 0 0 -3.49232 -22.0496A 2.69793 2.69793 0 0 0 -4.39717 -20.2512L -4.431467671447332 -19.84275688770164 A 4.33635 4.33635 0 0 1 -4.67777 -18.7225A 1.69635 1.69635 0 0 1 -5.74762 -17.6894A 1.69635 1.69635 0 0 1 -7.22041 -17.8963L -8.078147207191844 -18.657878880688777 A 4.33635 4.33635 0 0 0 -8.34595 -18.9681A 2.69793 2.69793 0 0 0 -10.1351 -19.8913A 2.69793 2.69793 0 0 0 -10.4399 -17.9012L -10.346325299231642 -17.50218441880878 A 4.33635 4.33635 0 0 1 -10.2344 -16.3606A 1.69635 1.69635 0 0 1 -10.9326 -15.0475A 1.69635 1.69635 0 0 1 -12.3973 -14.7892L -13.448376194113552 -15.248412519639986 A 4.33635 4.33635 0 0 0 -13.7989 -15.4607A 2.69793 2.69793 0 0 0 -15.7858 -15.7858A 2.69793 2.69793 0 0 0 -15.4607 -13.7989L -15.248412519639984 -13.448376194113557 A 4.33635 4.33635 0 0 1 -14.7892 -12.3973A 1.69635 1.69635 0 0 1 -15.0475 -10.9326A 1.69635 1.69635 0 0 1 -16.3606 -10.2344L -17.50218441880878 -10.346325299231648 A 4.33635 4.33635 0 0 0 -17.9012 -10.4399A 2.69793 2.69793 0 0 0 -19.8913 -10.1351A 2.69793 2.69793 0 0 0 -18.9681 -8.34595L -18.657878880688774 -8.078147207191849 A 4.33635 4.33635 0 0 1 -17.8963 -7.22041A 1.69635 1.69635 0 0 1 -17.6894 -5.74762A 1.69635 1.69635 0 0 1 -18.7225 -4.67777L -19.842756887701636 -4.431467671447338 A 4.33635 4.33635 0 0 0 -20.2512 -4.39717A 2.69793 2.69793 0 0 0 -22.0496 -3.49232A 2.69793 2.69793 0 0 0 -20.6188 -2.07599L -20.240982059809586 -1.9171728878690515 A 4.33635 4.33635 0 0 1 -19.2517 -1.33674A 1.69635 1.69635 0 0 1 -18.5997 -3.21007e-15A 1.69635 1.69635 0 0 1 -19.2517 1.33674L -20.240982059809586 1.917172887869044 A 4.33635 4.33635 0 0 0 -20.6188 2.07599A 2.69793 2.69793 0 0 0 -22.0496 3.49232A 2.69793 2.69793 0 0 0 -20.2512 4.39717L -19.84275688770164 4.431467671447331 A 4.33635 4.33635 0 0 1 -18.7225 4.67777A 1.69635 1.69635 0 0 1 -17.6894 5.74762A 1.69635 1.69635 0 0 1 -17.8963 7.22041L -18.657878880688777 8.078147207191842 A 4.33635 4.33635 0 0 0 -18.9681 8.34595A 2.69793 2.69793 0 0 0 -19.8913 10.1351A 2.69793 2.69793 0 0 0 -17.9012 10.4399L -17.502184418808785 10.34632529923164 A 4.33635 4.33635 0 0 1 -16.3606 10.2344A 1.69635 1.69635 0 0 1 -15.0475 10.9326A 1.69635 1.69635 0 0 1 -14.7892 12.3973L -15.24841251963999 13.44837619411355 A 4.33635 4.33635 0 0 0 -15.4607 13.7989A 2.69793 2.69793 0 0 0 -15.7858 15.7858A 2.69793 2.69793 0 0 0 -13.7989 15.4607L -13.448376194113559 15.248412519639984 A 4.33635 4.33635 0 0 1 -12.3973 14.7892A 1.69635 1.69635 0 0 1 -10.9326 15.0475A 1.69635 1.69635 0 0 1 -10.2344 16.3606L -10.34632529923165 17.50218441880878 A 4.33635 4.33635 0 0 0 -10.4399 17.9012A 2.69793 2.69793 0 0 0 -10.1351 19.8913A 2.69793 2.69793 0 0 0 -8.34595 18.9681L -8.07814720719185 18.657878880688774 A 4.33635 4.33635 0 0 1 -7.22041 17.8963A 1.69635 1.69635 0 0 1 -5.74762 17.6894A 1.69635 1.69635 0 0 1 -4.67777 18.7225L -4.43146767144734 19.842756887701636 A 4.33635 4.33635 0 0 0 -4.39717 20.2512A 2.69793 2.69793 0 0 0 -3.49232 22.0496" stroke="#191919" stroke-width="0.7 px" style="stroke-width:0.7;stroke-miterlimit:4;stroke-dasharray:none;stroke-linecap:square;fill:none;fill-opacity:1;fill-rule: evenodd"/>
<title>b'engranaje'</title>
</g>
<g id="Part__Part2DObjectPython001" transform="translate(22.490640,22.490640) scale(1,-1)">
<circle cx="0.0" cy="0.0" r="10.0" stroke="#f1f3f5" stroke-width="0.7 px" style="stroke-width:0.7;stroke-miterlimit:4;stroke-dasharray:none;stroke-linecap:square;fill:none"/>
<title>b'Part__Part2DObjectPython001'</title>
</g>
</svg>